<svg version="1.1" xmlns="http://www.w3.org/2000/svg" style="display: block;" viewBox="0 0 2048 1170" width="1344" height="768" preserveAspectRatio="none">
<defs>
	<linearGradient id="Gradient1" gradientUnits="userSpaceOnUse" x1="938.247" y1="342.889" x2="947.391" y2="370.737">
		<stop class="stop0" offset="0" stop-opacity="1" stop-color="rgb(31,213,239)"/>
		<stop class="stop1" offset="1" stop-opacity="1" stop-color="rgb(39,194,241)"/>
	</linearGradient>
	<linearGradient id="Gradient2" gradientUnits="userSpaceOnUse" x1="997.843" y1="514.238" x2="941.79" y2="577.083">
		<stop class="stop0" offset="0" stop-opacity="1" stop-color="rgb(21,232,239)"/>
		<stop class="stop1" offset="1" stop-opacity="1" stop-color="rgb(27,167,240)"/>
	</linearGradient>
	<linearGradient id="Gradient3" gradientUnits="userSpaceOnUse" x1="930.032" y1="664.495" x2="955.067" y2="756.697">
		<stop class="stop0" offset="0" stop-opacity="1" stop-color="rgb(114,60,233)"/>
		<stop class="stop1" offset="1" stop-opacity="1" stop-color="rgb(187,70,253)"/>
	</linearGradient>
	<linearGradient id="Gradient4" gradientUnits="userSpaceOnUse" x1="1023.73" y1="592.457" x2="1111.81" y2="697.019">
		<stop class="stop0" offset="0" stop-opacity="1" stop-color="rgb(51,34,161)"/>
		<stop class="stop1" offset="1" stop-opacity="1" stop-color="rgb(117,27,238)"/>
	</linearGradient>
</defs>
<path transform="translate(0,0)" fill="rgb(255,255,255)" d="M 0 0 L 2048 0 L 2048 1170 L 0 1170 L 0 0 z"/>
<path transform="translate(0,0)" fill="url(#Gradient4)" d="M 1117.21 423.831 C 1121.09 425.984 1124.57 428.39 1128.99 428.337 C 1139.8 433.671 1150.11 440.073 1160.56 446.079 C 1180.92 457.785 1201.23 466.192 1209.36 490.494 C 1214.03 504.475 1214.34 573.643 1212.15 589.348 C 1212.01 612.163 1200.09 632.969 1178.25 641.483 L 1101.38 684.202 C 1085.72 692.86 1068.66 702.808 1052.83 710.649 C 1042.55 717.547 1024.38 726.764 1013.11 732.939 C 1001.95 739.049 984.091 749.271 972.849 753.998 C 951.409 761.821 921.311 754.727 908.922 733.335 C 903.621 724.181 902.654 690.791 913.342 683.84 C 931.701 671.9 953.753 658.835 973.823 649.218 C 1000.52 633.982 1027.38 619.026 1054.39 604.351 C 1088.19 585.808 1136.72 566.994 1100.95 520.236 C 1081.35 508.572 1061.6 497.422 1042 485.795 C 1042.6 483.926 1045.02 476.283 1046.25 475.151 C 1058.02 464.296 1072.89 457.163 1085.49 449.749 C 1091.91 445.974 1111.72 428.906 1117.21 423.831 z"/>
<path transform="translate(0,0)" fill="rgb(97,83,236)" d="M 1117.21 423.831 C 1121.09 425.984 1124.57 428.39 1128.99 428.337 C 1139.8 433.671 1150.11 440.073 1160.56 446.079 C 1180.92 457.785 1201.23 466.192 1209.36 490.494 C 1214.03 504.475 1214.34 573.643 1212.15 589.348 C 1211.32 582.433 1211.54 565.498 1211.4 557.773 L 1210.78 558.487 C 1211.07 562.198 1211.57 585.379 1210.39 587.487 C 1206.98 581.124 1204.94 576.689 1197.99 573.127 C 1172.58 560.116 1147.9 546.1 1123.24 531.706 C 1116.7 527.887 1107.93 522.578 1100.95 520.236 C 1081.35 508.572 1061.6 497.422 1042 485.795 C 1042.6 483.926 1045.02 476.283 1046.25 475.151 C 1058.02 464.296 1072.89 457.163 1085.49 449.749 C 1091.91 445.974 1111.72 428.906 1117.21 423.831 z"/>
<path transform="translate(0,0)" fill="url(#Gradient3)" d="M 972.849 753.998 C 951.409 761.821 921.311 754.727 908.922 733.335 C 903.621 724.181 902.654 690.791 913.342 683.84 C 931.701 671.9 953.753 658.835 973.823 649.218 C 969.249 659.99 961.23 665.51 961.251 678.898 C 961.284 700.548 958.893 723.802 962.531 745.081 C 963.234 749.183 969.42 752.503 972.849 753.998 z"/>
<path transform="translate(0,0)" fill="rgb(97,83,236)" d="M 1062.94 688.61 C 1073.24 666.958 1084.03 646.783 1107.26 636.078 C 1119.36 630.498 1130.25 631.16 1142.53 633.008 C 1147.87 632.506 1152.44 630.224 1157.96 632.14 C 1165.25 634.677 1170.76 638.484 1178.25 641.483 L 1101.38 684.202 C 1085.72 692.86 1068.66 702.808 1052.83 710.649 C 1055.75 704.179 1062.73 705.246 1065.59 699.943 C 1066.24 696.06 1064.36 692.394 1062.94 688.61 z"/>
<path transform="translate(0,0)" fill="rgb(42,148,239)" d="M 835.283 426.392 C 853.238 434.082 887.76 456.389 906.44 466.429 C 915.929 471.529 955.042 493.77 962.393 499.288 C 978.074 507.55 994.909 518.589 1009.89 525.927 C 1026.58 534.103 1042.8 553.33 1019.68 564.585 C 989.374 579.342 956.771 603.24 927.085 616.642 C 924.838 619.195 843.067 665.169 835.813 668.105 C 835.052 652.966 835.589 634.537 835.645 619.173 C 835.52 599.285 835.6 579.395 835.887 559.509 C 835.335 556.969 835.508 528.969 835.486 524.444 L 835.283 426.392 z"/>
<path transform="translate(0,0)" fill="rgb(27,219,241)" d="M 835.283 426.392 C 853.238 434.082 887.76 456.389 906.44 466.429 C 915.929 471.529 955.042 493.77 962.393 499.288 C 965.23 504.981 967.595 502.128 969.521 506.997 C 963.011 514.385 908.824 537.17 898.393 545.558 C 892.251 550.498 869.422 558.684 864.693 563.526 C 853.112 566.913 845.611 573.195 837.464 581.546 C 836.963 574.179 838.07 566.303 835.887 559.509 C 835.335 556.969 835.508 528.969 835.486 524.444 L 835.283 426.392 z"/>
<path transform="translate(0,0)" fill="url(#Gradient2)" d="M 962.393 499.288 C 978.074 507.55 994.909 518.589 1009.89 525.927 C 1026.58 534.103 1042.8 553.33 1019.68 564.585 C 989.374 579.342 956.771 603.24 927.085 616.642 C 930.546 611.208 955.334 598.351 962.054 595.044 C 947.644 580.142 931.163 569.084 917.325 553.776 C 915.307 551.544 909.314 544.763 906.71 544.375 L 906.587 543.706 C 896.995 549.153 873.914 563.993 864.693 563.526 C 869.422 558.684 892.251 550.498 898.393 545.558 C 908.824 537.17 963.011 514.385 969.521 506.997 C 967.595 502.128 965.23 504.981 962.393 499.288 z"/>
<path transform="translate(0,0)" fill="rgb(42,148,239)" d="M 927.994 420.427 C 902.331 413.077 898.688 376.416 911.847 357.239 C 920.49 344.644 957.833 332.364 971.504 340.512 C 987.717 350.175 1020.84 363.792 1034.98 375.378 C 1054.2 384.971 1075.31 397.9 1094.34 408.323 C 1101.42 412.198 1123.16 424.138 1128.99 428.337 C 1124.57 428.39 1121.09 425.984 1117.21 423.831 C 1111.72 428.906 1091.91 445.974 1085.49 449.749 C 1072.89 457.163 1058.02 464.296 1046.25 475.151 C 1045.02 476.283 1042.6 483.926 1042 485.795 C 1026.17 477.741 1004.43 464.467 988.696 455.443 C 969.766 444.584 945.838 431.874 927.994 420.427 z"/>
<path transform="translate(0,0)" fill="url(#Gradient1)" d="M 927.994 420.427 C 902.331 413.077 898.688 376.416 911.847 357.239 C 920.49 344.644 957.833 332.364 971.504 340.512 C 987.717 350.175 1020.84 363.792 1034.98 375.378 C 1029.06 376.663 994.421 352.907 987.425 350.846 C 982.782 349.478 964.587 362.719 958.832 365.66 C 947.976 371.209 913.896 376.484 907.842 385.407 C 904.181 397.277 909.404 404.006 917.759 411.95 C 920.892 414.93 928.214 417.065 927.994 420.427 z"/>
</svg>
